<mxfile host="app.diagrams.net" agent="Mozilla/5.0 (Windows NT 10.0; Win64; x64) AppleWebKit/537.36 (KHTML, like Gecko) Chrome/128.0.0.0 Safari/537.36" version="24.7.7">
  <diagram id="R2lEEEUBdFMjLlhIrx00" name="Page-1">
    <mxGraphModel dx="2876" dy="2270" grid="1" gridSize="10" guides="1" tooltips="1" connect="1" arrows="1" fold="1" page="1" pageScale="1" pageWidth="850" pageHeight="1100" math="0" shadow="0" extFonts="Permanent Marker^https://fonts.googleapis.com/css?family=Permanent+Marker">
      <root>
        <mxCell id="0" />
        <mxCell id="1" parent="0" />
        <mxCell id="N9_d6N2TLLhU399uiBW9-1" value="User" style="whiteSpace=wrap;html=1;align=center;" vertex="1" parent="1">
          <mxGeometry x="325" y="50" width="100" height="40" as="geometry" />
        </mxCell>
        <mxCell id="N9_d6N2TLLhU399uiBW9-2" value="Balance" style="whiteSpace=wrap;html=1;align=center;" vertex="1" parent="1">
          <mxGeometry x="390" y="740" width="100" height="40" as="geometry" />
        </mxCell>
        <mxCell id="N9_d6N2TLLhU399uiBW9-3" value="Payment" style="whiteSpace=wrap;html=1;align=center;" vertex="1" parent="1">
          <mxGeometry x="800" y="170" width="100" height="40" as="geometry" />
        </mxCell>
        <mxCell id="N9_d6N2TLLhU399uiBW9-4" value="Data" style="whiteSpace=wrap;html=1;align=center;" vertex="1" parent="1">
          <mxGeometry x="-130" y="50" width="100" height="40" as="geometry" />
        </mxCell>
        <mxCell id="N9_d6N2TLLhU399uiBW9-6" value="Goal" style="whiteSpace=wrap;html=1;align=center;" vertex="1" parent="1">
          <mxGeometry x="10" y="430" width="100" height="40" as="geometry" />
        </mxCell>
        <mxCell id="N9_d6N2TLLhU399uiBW9-13" style="rounded=0;orthogonalLoop=1;jettySize=auto;html=1;exitX=1;exitY=1;exitDx=0;exitDy=0;curved=0;endArrow=none;endFill=0;" edge="1" parent="1" source="N9_d6N2TLLhU399uiBW9-7" target="N9_d6N2TLLhU399uiBW9-1">
          <mxGeometry relative="1" as="geometry" />
        </mxCell>
        <mxCell id="N9_d6N2TLLhU399uiBW9-7" value="Id" style="ellipse;whiteSpace=wrap;html=1;align=center;" vertex="1" parent="1">
          <mxGeometry x="180" y="20" width="100" height="40" as="geometry" />
        </mxCell>
        <mxCell id="N9_d6N2TLLhU399uiBW9-15" style="rounded=0;orthogonalLoop=1;jettySize=auto;html=1;exitX=0.5;exitY=1;exitDx=0;exitDy=0;curved=0;endArrow=none;endFill=0;" edge="1" parent="1" source="N9_d6N2TLLhU399uiBW9-8" target="N9_d6N2TLLhU399uiBW9-1">
          <mxGeometry relative="1" as="geometry" />
        </mxCell>
        <mxCell id="N9_d6N2TLLhU399uiBW9-8" value="Email" style="ellipse;whiteSpace=wrap;html=1;align=center;" vertex="1" parent="1">
          <mxGeometry x="325" y="-90" width="100" height="40" as="geometry" />
        </mxCell>
        <mxCell id="N9_d6N2TLLhU399uiBW9-17" style="rounded=0;orthogonalLoop=1;jettySize=auto;html=1;exitX=0.5;exitY=1;exitDx=0;exitDy=0;curved=0;endArrow=none;endFill=0;" edge="1" parent="1" source="N9_d6N2TLLhU399uiBW9-9" target="N9_d6N2TLLhU399uiBW9-1">
          <mxGeometry relative="1" as="geometry" />
        </mxCell>
        <mxCell id="N9_d6N2TLLhU399uiBW9-9" value="Remember Token" style="ellipse;whiteSpace=wrap;html=1;align=center;" vertex="1" parent="1">
          <mxGeometry x="490" y="20" width="100" height="40" as="geometry" />
        </mxCell>
        <mxCell id="N9_d6N2TLLhU399uiBW9-16" style="rounded=0;orthogonalLoop=1;jettySize=auto;html=1;exitX=0.5;exitY=1;exitDx=0;exitDy=0;curved=0;endArrow=none;endFill=0;" edge="1" parent="1" source="N9_d6N2TLLhU399uiBW9-10" target="N9_d6N2TLLhU399uiBW9-1">
          <mxGeometry relative="1" as="geometry" />
        </mxCell>
        <mxCell id="N9_d6N2TLLhU399uiBW9-10" value="Password" style="ellipse;whiteSpace=wrap;html=1;align=center;" vertex="1" parent="1">
          <mxGeometry x="440" y="-50" width="100" height="40" as="geometry" />
        </mxCell>
        <mxCell id="N9_d6N2TLLhU399uiBW9-14" style="rounded=0;orthogonalLoop=1;jettySize=auto;html=1;exitX=1;exitY=1;exitDx=0;exitDy=0;curved=0;endArrow=none;endFill=0;" edge="1" parent="1" source="N9_d6N2TLLhU399uiBW9-11" target="N9_d6N2TLLhU399uiBW9-1">
          <mxGeometry relative="1" as="geometry" />
        </mxCell>
        <mxCell id="N9_d6N2TLLhU399uiBW9-11" value="Name" style="ellipse;whiteSpace=wrap;html=1;align=center;" vertex="1" parent="1">
          <mxGeometry x="210" y="-50" width="100" height="40" as="geometry" />
        </mxCell>
        <mxCell id="N9_d6N2TLLhU399uiBW9-34" style="rounded=0;orthogonalLoop=1;jettySize=auto;html=1;exitX=0.5;exitY=1;exitDx=0;exitDy=0;endArrow=none;endFill=0;" edge="1" parent="1" source="N9_d6N2TLLhU399uiBW9-19" target="N9_d6N2TLLhU399uiBW9-4">
          <mxGeometry relative="1" as="geometry" />
        </mxCell>
        <mxCell id="N9_d6N2TLLhU399uiBW9-19" value="Entertainment" style="ellipse;whiteSpace=wrap;html=1;align=center;" vertex="1" parent="1">
          <mxGeometry x="-180" y="-140" width="100" height="40" as="geometry" />
        </mxCell>
        <mxCell id="N9_d6N2TLLhU399uiBW9-33" style="rounded=0;orthogonalLoop=1;jettySize=auto;html=1;exitX=1;exitY=1;exitDx=0;exitDy=0;endArrow=none;endFill=0;" edge="1" parent="1" source="N9_d6N2TLLhU399uiBW9-20" target="N9_d6N2TLLhU399uiBW9-4">
          <mxGeometry relative="1" as="geometry" />
        </mxCell>
        <mxCell id="N9_d6N2TLLhU399uiBW9-20" value="Healthcare" style="ellipse;whiteSpace=wrap;html=1;align=center;" vertex="1" parent="1">
          <mxGeometry x="-250" y="-80" width="100" height="40" as="geometry" />
        </mxCell>
        <mxCell id="N9_d6N2TLLhU399uiBW9-32" style="rounded=0;orthogonalLoop=1;jettySize=auto;html=1;exitX=1;exitY=0.5;exitDx=0;exitDy=0;endArrow=none;endFill=0;" edge="1" parent="1" source="N9_d6N2TLLhU399uiBW9-21" target="N9_d6N2TLLhU399uiBW9-4">
          <mxGeometry relative="1" as="geometry" />
        </mxCell>
        <mxCell id="N9_d6N2TLLhU399uiBW9-21" value="Transportation" style="ellipse;whiteSpace=wrap;html=1;align=center;" vertex="1" parent="1">
          <mxGeometry x="-300" y="-20" width="100" height="40" as="geometry" />
        </mxCell>
        <mxCell id="N9_d6N2TLLhU399uiBW9-31" style="rounded=0;orthogonalLoop=1;jettySize=auto;html=1;exitX=1;exitY=0.5;exitDx=0;exitDy=0;endArrow=none;endFill=0;" edge="1" parent="1" source="N9_d6N2TLLhU399uiBW9-22" target="N9_d6N2TLLhU399uiBW9-4">
          <mxGeometry relative="1" as="geometry" />
        </mxCell>
        <mxCell id="N9_d6N2TLLhU399uiBW9-22" value="Housing" style="ellipse;whiteSpace=wrap;html=1;align=center;" vertex="1" parent="1">
          <mxGeometry x="-320" y="50" width="100" height="40" as="geometry" />
        </mxCell>
        <mxCell id="N9_d6N2TLLhU399uiBW9-30" style="rounded=0;orthogonalLoop=1;jettySize=auto;html=1;exitX=1;exitY=0;exitDx=0;exitDy=0;endArrow=none;endFill=0;" edge="1" parent="1" source="N9_d6N2TLLhU399uiBW9-23" target="N9_d6N2TLLhU399uiBW9-4">
          <mxGeometry relative="1" as="geometry" />
        </mxCell>
        <mxCell id="N9_d6N2TLLhU399uiBW9-23" value="Food and Drink" style="ellipse;whiteSpace=wrap;html=1;align=center;" vertex="1" parent="1">
          <mxGeometry x="-300" y="120" width="100" height="40" as="geometry" />
        </mxCell>
        <mxCell id="N9_d6N2TLLhU399uiBW9-28" style="rounded=0;orthogonalLoop=1;jettySize=auto;html=1;exitX=0.5;exitY=0;exitDx=0;exitDy=0;endArrow=none;endFill=0;" edge="1" parent="1" source="N9_d6N2TLLhU399uiBW9-24" target="N9_d6N2TLLhU399uiBW9-4">
          <mxGeometry relative="1" as="geometry" />
        </mxCell>
        <mxCell id="N9_d6N2TLLhU399uiBW9-24" value="Id" style="ellipse;whiteSpace=wrap;html=1;align=center;" vertex="1" parent="1">
          <mxGeometry x="-180" y="240" width="100" height="40" as="geometry" />
        </mxCell>
        <mxCell id="N9_d6N2TLLhU399uiBW9-29" style="rounded=0;orthogonalLoop=1;jettySize=auto;html=1;exitX=1;exitY=0;exitDx=0;exitDy=0;endArrow=none;endFill=0;" edge="1" parent="1" source="N9_d6N2TLLhU399uiBW9-25" target="N9_d6N2TLLhU399uiBW9-4">
          <mxGeometry relative="1" as="geometry" />
        </mxCell>
        <mxCell id="N9_d6N2TLLhU399uiBW9-25" value="Other" style="ellipse;whiteSpace=wrap;html=1;align=center;" vertex="1" parent="1">
          <mxGeometry x="-260" y="180" width="100" height="40" as="geometry" />
        </mxCell>
        <mxCell id="N9_d6N2TLLhU399uiBW9-27" style="rounded=0;orthogonalLoop=1;jettySize=auto;html=1;exitX=0.5;exitY=0;exitDx=0;exitDy=0;endArrow=none;endFill=0;" edge="1" parent="1" source="N9_d6N2TLLhU399uiBW9-26" target="N9_d6N2TLLhU399uiBW9-4">
          <mxGeometry relative="1" as="geometry" />
        </mxCell>
        <mxCell id="N9_d6N2TLLhU399uiBW9-26" value="User Id" style="ellipse;whiteSpace=wrap;html=1;align=center;" vertex="1" parent="1">
          <mxGeometry x="-60" y="210" width="100" height="40" as="geometry" />
        </mxCell>
        <mxCell id="N9_d6N2TLLhU399uiBW9-44" style="rounded=0;orthogonalLoop=1;jettySize=auto;html=1;exitX=1;exitY=0.5;exitDx=0;exitDy=0;endArrow=none;endFill=0;" edge="1" parent="1" source="N9_d6N2TLLhU399uiBW9-35" target="N9_d6N2TLLhU399uiBW9-6">
          <mxGeometry relative="1" as="geometry" />
        </mxCell>
        <mxCell id="N9_d6N2TLLhU399uiBW9-35" value="User Id" style="ellipse;whiteSpace=wrap;html=1;align=center;" vertex="1" parent="1">
          <mxGeometry x="-160" y="470" width="100" height="40" as="geometry" />
        </mxCell>
        <mxCell id="N9_d6N2TLLhU399uiBW9-131" style="rounded=0;orthogonalLoop=1;jettySize=auto;html=1;exitX=1;exitY=1;exitDx=0;exitDy=0;endArrow=none;endFill=0;" edge="1" parent="1" source="N9_d6N2TLLhU399uiBW9-36" target="N9_d6N2TLLhU399uiBW9-2">
          <mxGeometry relative="1" as="geometry" />
        </mxCell>
        <mxCell id="N9_d6N2TLLhU399uiBW9-36" value="Id" style="ellipse;whiteSpace=wrap;html=1;align=center;" vertex="1" parent="1">
          <mxGeometry x="260" y="680" width="100" height="40" as="geometry" />
        </mxCell>
        <mxCell id="N9_d6N2TLLhU399uiBW9-43" style="rounded=0;orthogonalLoop=1;jettySize=auto;html=1;exitX=1;exitY=1;exitDx=0;exitDy=0;endArrow=none;endFill=0;" edge="1" parent="1" source="N9_d6N2TLLhU399uiBW9-38" target="N9_d6N2TLLhU399uiBW9-6">
          <mxGeometry relative="1" as="geometry" />
        </mxCell>
        <mxCell id="N9_d6N2TLLhU399uiBW9-38" value="Id" style="ellipse;whiteSpace=wrap;html=1;align=center;" vertex="1" parent="1">
          <mxGeometry x="-150" y="390" width="100" height="40" as="geometry" />
        </mxCell>
        <mxCell id="N9_d6N2TLLhU399uiBW9-46" style="rounded=0;orthogonalLoop=1;jettySize=auto;html=1;exitX=0.5;exitY=0;exitDx=0;exitDy=0;endArrow=none;endFill=0;" edge="1" parent="1" source="N9_d6N2TLLhU399uiBW9-39" target="N9_d6N2TLLhU399uiBW9-6">
          <mxGeometry relative="1" as="geometry" />
        </mxCell>
        <mxCell id="N9_d6N2TLLhU399uiBW9-39" value="Price&lt;span style=&quot;color: rgba(0, 0, 0, 0); font-family: monospace; font-size: 0px; text-align: start; text-wrap: nowrap;&quot;&gt;%3CmxGraphModel%3E%3Croot%3E%3CmxCell%20id%3D%220%22%2F%3E%3CmxCell%20id%3D%221%22%20parent%3D%220%22%2F%3E%3CmxCell%20id%3D%222%22%20value%3D%22Id%22%20style%3D%22ellipse%3BwhiteSpace%3Dwrap%3Bhtml%3D1%3Balign%3Dcenter%3B%22%20vertex%3D%221%22%20parent%3D%221%22%3E%3CmxGeometry%20x%3D%22180%22%20y%3D%2220%22%20width%3D%22100%22%20height%3D%2240%22%20as%3D%22geometry%22%2F%3E%3C%2FmxCell%3E%3C%2Froot%3E%3C%2FmxGraphModel%3E&lt;/span&gt;" style="ellipse;whiteSpace=wrap;html=1;align=center;" vertex="1" parent="1">
          <mxGeometry x="60" y="540" width="100" height="40" as="geometry" />
        </mxCell>
        <mxCell id="N9_d6N2TLLhU399uiBW9-45" style="rounded=0;orthogonalLoop=1;jettySize=auto;html=1;exitX=1;exitY=0;exitDx=0;exitDy=0;endArrow=none;endFill=0;" edge="1" parent="1" source="N9_d6N2TLLhU399uiBW9-40" target="N9_d6N2TLLhU399uiBW9-6">
          <mxGeometry relative="1" as="geometry" />
        </mxCell>
        <mxCell id="N9_d6N2TLLhU399uiBW9-40" value="Title" style="ellipse;whiteSpace=wrap;html=1;align=center;" vertex="1" parent="1">
          <mxGeometry x="-80" y="540" width="100" height="40" as="geometry" />
        </mxCell>
        <mxCell id="N9_d6N2TLLhU399uiBW9-47" style="rounded=0;orthogonalLoop=1;jettySize=auto;html=1;exitX=0;exitY=0;exitDx=0;exitDy=0;endArrow=none;endFill=0;" edge="1" parent="1" source="N9_d6N2TLLhU399uiBW9-41" target="N9_d6N2TLLhU399uiBW9-6">
          <mxGeometry relative="1" as="geometry" />
        </mxCell>
        <mxCell id="N9_d6N2TLLhU399uiBW9-41" value="Description" style="ellipse;whiteSpace=wrap;html=1;align=center;" vertex="1" parent="1">
          <mxGeometry x="170" y="490" width="100" height="40" as="geometry" />
        </mxCell>
        <mxCell id="N9_d6N2TLLhU399uiBW9-48" style="rounded=0;orthogonalLoop=1;jettySize=auto;html=1;exitX=0;exitY=1;exitDx=0;exitDy=0;endArrow=none;endFill=0;" edge="1" parent="1" source="N9_d6N2TLLhU399uiBW9-42" target="N9_d6N2TLLhU399uiBW9-6">
          <mxGeometry relative="1" as="geometry" />
        </mxCell>
        <mxCell id="N9_d6N2TLLhU399uiBW9-42" value="Date" style="ellipse;whiteSpace=wrap;html=1;align=center;" vertex="1" parent="1">
          <mxGeometry x="160" y="390" width="100" height="40" as="geometry" />
        </mxCell>
        <mxCell id="N9_d6N2TLLhU399uiBW9-129" style="rounded=0;orthogonalLoop=1;jettySize=auto;html=1;exitX=0;exitY=1;exitDx=0;exitDy=0;endArrow=none;endFill=0;" edge="1" parent="1" source="N9_d6N2TLLhU399uiBW9-50" target="N9_d6N2TLLhU399uiBW9-2">
          <mxGeometry relative="1" as="geometry" />
        </mxCell>
        <mxCell id="N9_d6N2TLLhU399uiBW9-50" value="Balance" style="ellipse;whiteSpace=wrap;html=1;align=center;" vertex="1" parent="1">
          <mxGeometry x="530" y="690" width="100" height="40" as="geometry" />
        </mxCell>
        <mxCell id="N9_d6N2TLLhU399uiBW9-70" style="rounded=0;orthogonalLoop=1;jettySize=auto;html=1;exitX=0;exitY=0.5;exitDx=0;exitDy=0;endArrow=none;endFill=0;" edge="1" parent="1" source="N9_d6N2TLLhU399uiBW9-53" target="N9_d6N2TLLhU399uiBW9-3">
          <mxGeometry relative="1" as="geometry" />
        </mxCell>
        <mxCell id="N9_d6N2TLLhU399uiBW9-53" value="Title" style="ellipse;whiteSpace=wrap;html=1;align=center;" vertex="1" parent="1">
          <mxGeometry x="940" y="140" width="100" height="40" as="geometry" />
        </mxCell>
        <mxCell id="N9_d6N2TLLhU399uiBW9-62" style="rounded=0;orthogonalLoop=1;jettySize=auto;html=1;exitX=1;exitY=1;exitDx=0;exitDy=0;endArrow=none;endFill=0;" edge="1" parent="1" source="N9_d6N2TLLhU399uiBW9-54" target="N9_d6N2TLLhU399uiBW9-3">
          <mxGeometry relative="1" as="geometry" />
        </mxCell>
        <mxCell id="N9_d6N2TLLhU399uiBW9-54" value="Id" style="ellipse;whiteSpace=wrap;html=1;align=center;" vertex="1" parent="1">
          <mxGeometry x="720" y="60" width="100" height="40" as="geometry" />
        </mxCell>
        <mxCell id="N9_d6N2TLLhU399uiBW9-71" style="rounded=0;orthogonalLoop=1;jettySize=auto;html=1;exitX=0.5;exitY=1;exitDx=0;exitDy=0;endArrow=none;endFill=0;" edge="1" parent="1" source="N9_d6N2TLLhU399uiBW9-55" target="N9_d6N2TLLhU399uiBW9-3">
          <mxGeometry relative="1" as="geometry" />
        </mxCell>
        <mxCell id="N9_d6N2TLLhU399uiBW9-55" value="User Id" style="ellipse;whiteSpace=wrap;html=1;align=center;" vertex="1" parent="1">
          <mxGeometry x="860" y="80" width="100" height="40" as="geometry" />
        </mxCell>
        <mxCell id="N9_d6N2TLLhU399uiBW9-130" style="rounded=0;orthogonalLoop=1;jettySize=auto;html=1;exitX=0.5;exitY=1;exitDx=0;exitDy=0;endArrow=none;endFill=0;" edge="1" parent="1" source="N9_d6N2TLLhU399uiBW9-56" target="N9_d6N2TLLhU399uiBW9-2">
          <mxGeometry relative="1" as="geometry" />
        </mxCell>
        <mxCell id="N9_d6N2TLLhU399uiBW9-56" value="User Id" style="ellipse;whiteSpace=wrap;html=1;align=center;" vertex="1" parent="1">
          <mxGeometry x="390" y="660" width="100" height="40" as="geometry" />
        </mxCell>
        <mxCell id="N9_d6N2TLLhU399uiBW9-69" style="rounded=0;orthogonalLoop=1;jettySize=auto;html=1;exitX=0;exitY=0.5;exitDx=0;exitDy=0;endArrow=none;endFill=0;" edge="1" parent="1" source="N9_d6N2TLLhU399uiBW9-57" target="N9_d6N2TLLhU399uiBW9-3">
          <mxGeometry relative="1" as="geometry" />
        </mxCell>
        <mxCell id="N9_d6N2TLLhU399uiBW9-57" value="Amount" style="ellipse;whiteSpace=wrap;html=1;align=center;" vertex="1" parent="1">
          <mxGeometry x="960" y="210" width="100" height="40" as="geometry" />
        </mxCell>
        <mxCell id="N9_d6N2TLLhU399uiBW9-68" style="rounded=0;orthogonalLoop=1;jettySize=auto;html=1;exitX=0;exitY=0;exitDx=0;exitDy=0;endArrow=none;endFill=0;" edge="1" parent="1" source="N9_d6N2TLLhU399uiBW9-58" target="N9_d6N2TLLhU399uiBW9-3">
          <mxGeometry relative="1" as="geometry" />
        </mxCell>
        <mxCell id="N9_d6N2TLLhU399uiBW9-58" value="Regular" style="ellipse;whiteSpace=wrap;html=1;align=center;" vertex="1" parent="1">
          <mxGeometry x="920" y="280" width="100" height="40" as="geometry" />
        </mxCell>
        <mxCell id="N9_d6N2TLLhU399uiBW9-67" style="rounded=0;orthogonalLoop=1;jettySize=auto;html=1;exitX=0.5;exitY=0;exitDx=0;exitDy=0;endArrow=none;endFill=0;" edge="1" parent="1" source="N9_d6N2TLLhU399uiBW9-59" target="N9_d6N2TLLhU399uiBW9-3">
          <mxGeometry relative="1" as="geometry" />
        </mxCell>
        <mxCell id="N9_d6N2TLLhU399uiBW9-59" value="Period" style="ellipse;whiteSpace=wrap;html=1;align=center;" vertex="1" parent="1">
          <mxGeometry x="790" y="300" width="100" height="40" as="geometry" />
        </mxCell>
        <mxCell id="N9_d6N2TLLhU399uiBW9-66" style="rounded=0;orthogonalLoop=1;jettySize=auto;html=1;exitX=1;exitY=0;exitDx=0;exitDy=0;endArrow=none;endFill=0;" edge="1" parent="1" source="N9_d6N2TLLhU399uiBW9-60" target="N9_d6N2TLLhU399uiBW9-3">
          <mxGeometry relative="1" as="geometry" />
        </mxCell>
        <mxCell id="N9_d6N2TLLhU399uiBW9-60" value="Type" style="ellipse;whiteSpace=wrap;html=1;align=center;" vertex="1" parent="1">
          <mxGeometry x="660" y="260" width="100" height="40" as="geometry" />
        </mxCell>
        <mxCell id="N9_d6N2TLLhU399uiBW9-65" style="rounded=0;orthogonalLoop=1;jettySize=auto;html=1;exitX=1;exitY=0.5;exitDx=0;exitDy=0;endArrow=none;endFill=0;" edge="1" parent="1" source="N9_d6N2TLLhU399uiBW9-61" target="N9_d6N2TLLhU399uiBW9-3">
          <mxGeometry relative="1" as="geometry" />
        </mxCell>
        <mxCell id="N9_d6N2TLLhU399uiBW9-61" value="Payment Type" style="ellipse;whiteSpace=wrap;html=1;align=center;" vertex="1" parent="1">
          <mxGeometry x="640" y="170" width="100" height="40" as="geometry" />
        </mxCell>
        <mxCell id="N9_d6N2TLLhU399uiBW9-64" style="rounded=0;orthogonalLoop=1;jettySize=auto;html=1;exitX=1;exitY=1;exitDx=0;exitDy=0;endArrow=none;endFill=0;" edge="1" parent="1" source="N9_d6N2TLLhU399uiBW9-63" target="N9_d6N2TLLhU399uiBW9-3">
          <mxGeometry relative="1" as="geometry" />
        </mxCell>
        <mxCell id="N9_d6N2TLLhU399uiBW9-63" value="Created At" style="ellipse;whiteSpace=wrap;html=1;align=center;" vertex="1" parent="1">
          <mxGeometry x="640" y="110" width="100" height="40" as="geometry" />
        </mxCell>
        <mxCell id="N9_d6N2TLLhU399uiBW9-91" value="Incoming" style="whiteSpace=wrap;html=1;align=center;" vertex="1" parent="1">
          <mxGeometry x="770" y="490" width="100" height="40" as="geometry" />
        </mxCell>
        <mxCell id="N9_d6N2TLLhU399uiBW9-92" style="rounded=0;orthogonalLoop=1;jettySize=auto;html=1;exitX=0;exitY=0.5;exitDx=0;exitDy=0;endArrow=none;endFill=0;" edge="1" parent="1" source="N9_d6N2TLLhU399uiBW9-93" target="N9_d6N2TLLhU399uiBW9-91">
          <mxGeometry relative="1" as="geometry" />
        </mxCell>
        <mxCell id="N9_d6N2TLLhU399uiBW9-93" value="Title" style="ellipse;whiteSpace=wrap;html=1;align=center;" vertex="1" parent="1">
          <mxGeometry x="910" y="460" width="100" height="40" as="geometry" />
        </mxCell>
        <mxCell id="N9_d6N2TLLhU399uiBW9-94" style="rounded=0;orthogonalLoop=1;jettySize=auto;html=1;exitX=1;exitY=1;exitDx=0;exitDy=0;endArrow=none;endFill=0;" edge="1" parent="1" source="N9_d6N2TLLhU399uiBW9-95" target="N9_d6N2TLLhU399uiBW9-91">
          <mxGeometry relative="1" as="geometry" />
        </mxCell>
        <mxCell id="N9_d6N2TLLhU399uiBW9-95" value="Id" style="ellipse;whiteSpace=wrap;html=1;align=center;" vertex="1" parent="1">
          <mxGeometry x="690" y="380" width="100" height="40" as="geometry" />
        </mxCell>
        <mxCell id="N9_d6N2TLLhU399uiBW9-96" style="rounded=0;orthogonalLoop=1;jettySize=auto;html=1;exitX=0.5;exitY=1;exitDx=0;exitDy=0;endArrow=none;endFill=0;" edge="1" parent="1" source="N9_d6N2TLLhU399uiBW9-97" target="N9_d6N2TLLhU399uiBW9-91">
          <mxGeometry relative="1" as="geometry" />
        </mxCell>
        <mxCell id="N9_d6N2TLLhU399uiBW9-97" value="User Id" style="ellipse;whiteSpace=wrap;html=1;align=center;" vertex="1" parent="1">
          <mxGeometry x="830" y="400" width="100" height="40" as="geometry" />
        </mxCell>
        <mxCell id="N9_d6N2TLLhU399uiBW9-98" style="rounded=0;orthogonalLoop=1;jettySize=auto;html=1;exitX=0;exitY=0.5;exitDx=0;exitDy=0;endArrow=none;endFill=0;" edge="1" parent="1" source="N9_d6N2TLLhU399uiBW9-99" target="N9_d6N2TLLhU399uiBW9-91">
          <mxGeometry relative="1" as="geometry" />
        </mxCell>
        <mxCell id="N9_d6N2TLLhU399uiBW9-99" value="Amount" style="ellipse;whiteSpace=wrap;html=1;align=center;" vertex="1" parent="1">
          <mxGeometry x="930" y="530" width="100" height="40" as="geometry" />
        </mxCell>
        <mxCell id="N9_d6N2TLLhU399uiBW9-100" style="rounded=0;orthogonalLoop=1;jettySize=auto;html=1;exitX=0;exitY=0;exitDx=0;exitDy=0;endArrow=none;endFill=0;" edge="1" parent="1" source="N9_d6N2TLLhU399uiBW9-101" target="N9_d6N2TLLhU399uiBW9-91">
          <mxGeometry relative="1" as="geometry" />
        </mxCell>
        <mxCell id="N9_d6N2TLLhU399uiBW9-101" value="Regular" style="ellipse;whiteSpace=wrap;html=1;align=center;" vertex="1" parent="1">
          <mxGeometry x="890" y="600" width="100" height="40" as="geometry" />
        </mxCell>
        <mxCell id="N9_d6N2TLLhU399uiBW9-102" style="rounded=0;orthogonalLoop=1;jettySize=auto;html=1;exitX=0.5;exitY=0;exitDx=0;exitDy=0;endArrow=none;endFill=0;" edge="1" parent="1" source="N9_d6N2TLLhU399uiBW9-103" target="N9_d6N2TLLhU399uiBW9-91">
          <mxGeometry relative="1" as="geometry" />
        </mxCell>
        <mxCell id="N9_d6N2TLLhU399uiBW9-103" value="Period" style="ellipse;whiteSpace=wrap;html=1;align=center;" vertex="1" parent="1">
          <mxGeometry x="760" y="620" width="100" height="40" as="geometry" />
        </mxCell>
        <mxCell id="N9_d6N2TLLhU399uiBW9-104" style="rounded=0;orthogonalLoop=1;jettySize=auto;html=1;exitX=1;exitY=0;exitDx=0;exitDy=0;endArrow=none;endFill=0;" edge="1" parent="1" source="N9_d6N2TLLhU399uiBW9-105" target="N9_d6N2TLLhU399uiBW9-91">
          <mxGeometry relative="1" as="geometry" />
        </mxCell>
        <mxCell id="N9_d6N2TLLhU399uiBW9-105" value="Type" style="ellipse;whiteSpace=wrap;html=1;align=center;" vertex="1" parent="1">
          <mxGeometry x="630" y="580" width="100" height="40" as="geometry" />
        </mxCell>
        <mxCell id="N9_d6N2TLLhU399uiBW9-106" style="rounded=0;orthogonalLoop=1;jettySize=auto;html=1;exitX=1;exitY=0.5;exitDx=0;exitDy=0;endArrow=none;endFill=0;" edge="1" parent="1" source="N9_d6N2TLLhU399uiBW9-107" target="N9_d6N2TLLhU399uiBW9-91">
          <mxGeometry relative="1" as="geometry" />
        </mxCell>
        <mxCell id="N9_d6N2TLLhU399uiBW9-107" value="Payment Type" style="ellipse;whiteSpace=wrap;html=1;align=center;" vertex="1" parent="1">
          <mxGeometry x="610" y="490" width="100" height="40" as="geometry" />
        </mxCell>
        <mxCell id="N9_d6N2TLLhU399uiBW9-108" style="rounded=0;orthogonalLoop=1;jettySize=auto;html=1;exitX=1;exitY=1;exitDx=0;exitDy=0;endArrow=none;endFill=0;" edge="1" parent="1" source="N9_d6N2TLLhU399uiBW9-109" target="N9_d6N2TLLhU399uiBW9-91">
          <mxGeometry relative="1" as="geometry" />
        </mxCell>
        <mxCell id="N9_d6N2TLLhU399uiBW9-109" value="Created At" style="ellipse;whiteSpace=wrap;html=1;align=center;" vertex="1" parent="1">
          <mxGeometry x="610" y="430" width="100" height="40" as="geometry" />
        </mxCell>
      </root>
    </mxGraphModel>
  </diagram>
</mxfile>
